<?xml version="1.0" encoding="utf-8"?>
<!-- Generator: Adobe Illustrator 24.3.0, SVG Export Plug-In . SVG Version: 6.00 Build 0)  -->
<svg version="1.1" id="Capa_1" xmlns="http://www.w3.org/2000/svg" xmlns:xlink="http://www.w3.org/1999/xlink" x="0px" y="0px"
	 viewBox="0 0 56.7 56.7" style="enable-background:new 0 0 56.7 56.7;" xml:space="preserve">
<style type="text/css">
	.st0{fill-rule:evenodd;clip-rule:evenodd;}
</style>
<g>
	<g>
		<g>
			<path class="st0" d="M25.8,29.1v8c0,0.1,0.1,0.2,0.2,0.2h3c0.1,0,0.2-0.1,0.2-0.2v-8.1h2.1c0.1,0,0.2-0.1,0.2-0.2l0.2-2.4
				c0-0.1-0.1-0.2-0.2-0.2h-2.3v-1.7c0-0.4,0.3-0.7,0.7-0.7h1.7c0.1,0,0.2-0.1,0.2-0.2V21c0-0.1-0.1-0.2-0.2-0.2h-2.8
				c-1.6,0-3,1.3-3,3v2.3h-1.5c-0.1,0-0.2,0.1-0.2,0.2v2.4c0,0.1,0.1,0.2,0.2,0.2h1.5V29.1z"/>
		</g>
		<path d="M27.9,12.7c-9,0-16.3,7.3-16.3,16.3S19,45.3,27.9,45.3S44.2,38,44.2,29C44.2,20,36.9,12.7,27.9,12.7z M42.1,29
			c0,7.8-6.4,14.2-14.2,14.2S13.7,36.8,13.7,29s6.4-14.2,14.2-14.2C35.8,14.8,42.1,21.2,42.1,29z"/>
	</g>
</g>
</svg>
