<?xml version="1.0" encoding="utf-8"?>
<!-- Generator: Adobe Illustrator 24.3.0, SVG Export Plug-In . SVG Version: 6.00 Build 0)  -->
<svg version="1.1" id="Capa_1" xmlns="http://www.w3.org/2000/svg" xmlns:xlink="http://www.w3.org/1999/xlink" x="0px" y="0px"
	 viewBox="0 0 56.69 56.69" style="enable-background:new 0 0 56.69 56.69;" xml:space="preserve">
<style type="text/css">
	.st0{fill-rule:evenodd;clip-rule:evenodd;}
</style>
<g>
	<g>
		<g>
			<path d="M33.81,23.82c0,0.54-0.44,0.98-0.98,0.98s-0.98-0.44-0.98-0.98c0-0.54,0.44-0.98,0.98-0.98S33.81,23.28,33.81,23.82z
				 M32.59,28.23c0,2.28-1.85,4.13-4.13,4.13c-2.28,0-4.13-1.85-4.13-4.13c0-2.28,1.85-4.13,4.13-4.13
				C30.74,24.1,32.59,25.95,32.59,28.23z M31.11,28.23c0-1.46-1.19-2.64-2.64-2.64c-1.46,0-2.64,1.19-2.64,2.64
				c0,1.46,1.19,2.64,2.64,2.64C29.92,30.87,31.11,29.69,31.11,28.23z M36.82,24.91c0-2.78-2.25-5.04-5.04-5.04h-6.87
				c-2.78,0-5.04,2.25-5.04,5.04v6.87c0,2.78,2.25,5.04,5.04,5.04h6.87c2.78,0,5.04-2.25,5.04-5.04V24.91z M35.16,31.71
				c0,1.91-1.55,3.46-3.46,3.46h-6.72c-1.91,0-3.46-1.55-3.46-3.46v-6.72c0-1.91,1.55-3.46,3.46-3.46h6.72
				c1.91,0,3.46,1.55,3.46,3.46V31.71z"/>
		</g>
		<path d="M28.35,11.94c-9.05,0-16.41,7.36-16.41,16.41c0,9.05,7.36,16.41,16.41,16.41s16.41-7.36,16.41-16.41
			C44.75,19.3,37.39,11.94,28.35,11.94z M28.35,42.65c-7.89,0-14.3-6.42-14.3-14.3c0-7.89,6.42-14.3,14.3-14.3
			c7.89,0,14.3,6.42,14.3,14.3C42.65,36.23,36.23,42.65,28.35,42.65z"/>
	</g>
</g>
</svg>
