<?xml version="1.0" encoding="utf-8"?>
<!-- Generator: Adobe Illustrator 24.3.0, SVG Export Plug-In . SVG Version: 6.00 Build 0)  -->
<svg version="1.1" id="Capa_1" xmlns="http://www.w3.org/2000/svg" xmlns:xlink="http://www.w3.org/1999/xlink" x="0px" y="0px"
	 viewBox="0 0 56.69 56.69" style="enable-background:new 0 0 56.69 56.69;" xml:space="preserve">
<style type="text/css">
	.st0{fill-rule:evenodd;clip-rule:evenodd;}
</style>
<g>
	<g>
		<g>
			<path d="M32.93,30.66c-0.34-0.2-0.78-0.43-1.18-0.27c-0.31,0.13-0.5,0.61-0.7,0.85c-0.1,0.13-0.22,0.15-0.38,0.08
				c-1.15-0.46-2.04-1.23-2.67-2.29c-0.11-0.16-0.09-0.29,0.04-0.45c0.19-0.23,0.43-0.48,0.49-0.79c0.05-0.31-0.09-0.66-0.22-0.93
				c-0.16-0.35-0.34-0.84-0.69-1.04c-0.32-0.18-0.74-0.08-1.03,0.15c-0.49,0.4-0.73,1.03-0.72,1.65c0,0.18,0.02,0.35,0.06,0.52
				c0.1,0.41,0.29,0.79,0.5,1.16c0.16,0.27,0.34,0.54,0.52,0.8c0.62,0.84,1.38,1.57,2.27,2.11c0.44,0.27,0.92,0.51,1.42,0.67
				c0.56,0.18,1.05,0.37,1.65,0.26c0.63-0.12,1.25-0.51,1.5-1.11c0.07-0.18,0.11-0.38,0.07-0.57
				C33.78,31.08,33.25,30.85,32.93,30.66z"/>
		</g>
		<g>
			<path d="M29.86,21.25c-4.55,0-8.26,3.7-8.26,8.26c0,1.39,0.36,2.77,1.04,3.99l-1.2,4.47l4.5-1.2c1.21,0.66,2.56,1,3.93,1
				c4.55,0,8.26-3.71,8.26-8.26C38.12,24.96,34.41,21.25,29.86,21.25z M29.86,36.21c-1.2,0-2.38-0.33-3.42-0.95l-0.28-0.17
				l-2.51,0.67l0.67-2.5l-0.17-0.29c-0.64-1.05-0.98-2.25-0.98-3.47c0-3.69,3-6.7,6.7-6.7c3.69,0,6.7,3,6.7,6.7
				S33.55,36.21,29.86,36.21z"/>
		</g>
	</g>
	<path d="M29.78,13.35c-8.97,0-16.27,7.3-16.27,16.27c0,8.97,7.3,16.27,16.27,16.27c8.97,0,16.27-7.3,16.27-16.27
		C46.05,20.65,38.75,13.35,29.78,13.35z M29.78,43.8c-7.82,0-14.18-6.36-14.18-14.18c0-7.82,6.36-14.18,14.18-14.18
		c7.82,0,14.18,6.36,14.18,14.18C43.96,37.44,37.6,43.8,29.78,43.8z"/>
</g>
</svg>
